
<region>
sample=../Samples/perc/mid/tumba/Tumba_24_HitN_1_40_rr1_Mid.wav
hivel=31
seq_length=8
amp_velcurve_31=1

<region>
sample=../Samples/perc/mid/tumba/Tumba_24_HitN_1_40_rr2_Mid.wav
hivel=31
seq_length=8
seq_position=2
amp_velcurve_31=1

<region>
sample=../Samples/perc/mid/tumba/Tumba_24_HitN_1_40_rr3_Mid.wav
hivel=31
seq_length=8
seq_position=3
amp_velcurve_31=1

<region>
sample=../Samples/perc/mid/tumba/Tumba_24_HitN_1_40_rr4_Mid.wav
hivel=31
seq_length=8
seq_position=4
amp_velcurve_31=1

<region>
sample=../Samples/perc/mid/tumba/Tumba_24_HitN_1_40_rr5_Mid.wav
hivel=31
seq_length=8
seq_position=5
amp_velcurve_31=1

<region>
sample=../Samples/perc/mid/tumba/Tumba_24_HitN_1_40_rr6_Mid.wav
hivel=31
seq_length=8
seq_position=6
amp_velcurve_31=1

<region>
sample=../Samples/perc/mid/tumba/Tumba_24_HitN_1_40_rr7_Mid.wav
hivel=31
seq_length=8
seq_position=7
amp_velcurve_31=1

<region>
sample=../Samples/perc/mid/tumba/Tumba_24_HitN_1_40_rr8_Mid.wav
hivel=31
seq_length=8
seq_position=8
amp_velcurve_31=1

<region>
sample=../Samples/perc/mid/tumba/Tumba_24_HitN_101_127_rr1_Mid.wav
lovel=96
seq_length=8

<region>
sample=../Samples/perc/mid/tumba/Tumba_24_HitN_101_127_rr2_Mid.wav
lovel=96
seq_length=8
seq_position=2

<region>
sample=../Samples/perc/mid/tumba/Tumba_24_HitN_101_127_rr3_Mid.wav
lovel=96
seq_length=8
seq_position=3

<region>
sample=../Samples/perc/mid/tumba/Tumba_24_HitN_101_127_rr4_Mid.wav
lovel=96
seq_length=8
seq_position=4

<region>
sample=../Samples/perc/mid/tumba/Tumba_24_HitN_101_127_rr5_Mid.wav
lovel=96
seq_length=8
seq_position=5

<region>
sample=../Samples/perc/mid/tumba/Tumba_24_HitN_101_127_rr6_Mid.wav
lovel=96
seq_length=8
seq_position=6

<region>
sample=../Samples/perc/mid/tumba/Tumba_24_HitN_101_127_rr7_Mid.wav
lovel=96
seq_length=8
seq_position=7

<region>
sample=../Samples/perc/mid/tumba/Tumba_24_HitN_101_127_rr8_Mid.wav
lovel=96
seq_length=8
seq_position=8

<region>
sample=../Samples/perc/mid/tumba/Tumba_24_HitN_41_70_rr1_Mid.wav
lovel=32
hivel=63
seq_length=8
amp_velcurve_63=1

<region>
sample=../Samples/perc/mid/tumba/Tumba_24_HitN_41_70_rr2_Mid.wav
lovel=32
hivel=63
seq_length=8
seq_position=2
amp_velcurve_63=1

<region>
sample=../Samples/perc/mid/tumba/Tumba_24_HitN_41_70_rr3_Mid.wav
lovel=32
hivel=63
seq_length=8
seq_position=3
amp_velcurve_63=1

<region>
sample=../Samples/perc/mid/tumba/Tumba_24_HitN_41_70_rr4_Mid.wav
lovel=32
hivel=63
seq_length=8
seq_position=4
amp_velcurve_63=1

<region>
sample=../Samples/perc/mid/tumba/Tumba_24_HitN_41_70_rr5_Mid.wav
lovel=32
hivel=63
seq_length=8
seq_position=5
amp_velcurve_63=1

<region>
sample=../Samples/perc/mid/tumba/Tumba_24_HitN_41_70_rr6_Mid.wav
lovel=32
hivel=63
seq_length=8
seq_position=6
amp_velcurve_63=1

<region>
sample=../Samples/perc/mid/tumba/Tumba_24_HitN_41_70_rr7_Mid.wav
lovel=32
hivel=63
seq_length=8
seq_position=7
amp_velcurve_63=1

<region>
sample=../Samples/perc/mid/tumba/Tumba_24_HitN_41_70_rr8_Mid.wav
lovel=32
hivel=63
seq_length=8
seq_position=8
amp_velcurve_63=1

<region>
sample=../Samples/perc/mid/tumba/Tumba_24_HitN_71_100_rr1_Mid.wav
lovel=64
hivel=95
seq_length=8
amp_velcurve_95=1

<region>
sample=../Samples/perc/mid/tumba/Tumba_24_HitN_71_100_rr2_Mid.wav
lovel=64
hivel=95
seq_length=8
seq_position=2
amp_velcurve_95=1

<region>
sample=../Samples/perc/mid/tumba/Tumba_24_HitN_71_100_rr3_Mid.wav
lovel=64
hivel=95
seq_length=8
seq_position=3
amp_velcurve_95=1

<region>
sample=../Samples/perc/mid/tumba/Tumba_24_HitN_71_100_rr4_Mid.wav
lovel=64
hivel=95
seq_length=8
seq_position=4
amp_velcurve_95=1

<region>
sample=../Samples/perc/mid/tumba/Tumba_24_HitN_71_100_rr5_Mid.wav
lovel=64
hivel=95
seq_length=8
seq_position=5
amp_velcurve_95=1

<region>
sample=../Samples/perc/mid/tumba/Tumba_24_HitN_71_100_rr6_Mid.wav
lovel=64
hivel=95
seq_length=8
seq_position=6
amp_velcurve_95=1

<region>
sample=../Samples/perc/mid/tumba/Tumba_24_HitN_71_100_rr7_Mid.wav
lovel=64
hivel=95
seq_length=8
seq_position=7
amp_velcurve_95=1

<region>
sample=../Samples/perc/mid/tumba/Tumba_24_HitN_71_100_rr8_Mid.wav
lovel=64
hivel=95
seq_length=8
seq_position=8
amp_velcurve_95=1
